<?xml version="1.0" encoding="UTF-8"?>
<svg id="Layer_1" data-name="Layer 1" xmlns="http://www.w3.org/2000/svg" viewBox="0 0 398.41 537.04">
  <defs>
    <style>
      .cls-1 {
        fill: #006838;
      }

      .cls-2 {
        fill: #f26522;
      }
    </style>
  </defs>
  <path class="cls-2" d="M396.14,121.35l-85.07,1.48c.15-3.01.23-6.01.15-9.09C310.11,49.9,261.6-1.01,202.96.02c-58.68,1.03-105.26,53.61-104.14,117.42.08,3.08.23,6.09.5,9.09l-85.15,1.48L0,498.34l93.7,2.4c-37.18-37.52-60.49-88.65-61.49-145.31-1.27-70.85,32.56-134.24,85.72-173.92,1.85-1.45,3.78-2.82,5.66-4.15,8.36-5.82,17.14-11.07,26.31-15.71,1.19-.61,2.39-1.18,3.62-1.75,27.47-13.28,58.25-20.96,90.81-21.5,15.57-.27,30.78,1.1,45.5,3.96,5.97,1.1,11.87,2.55,17.65,4.19,34.21,9.59,65,27.4,90.04,51.1l-1.39-76.29ZM195.87,124.85l-71.51,1.26c8.94-49.04,40.95-85.53,79.75-86.22,2-.04,3.97.04,5.93.23,37.8,1.29,69.43,36.76,79.06,84.73h-93.24Z"/>
  <path class="cls-1" d="M398.41,468.09c-13.87,16.63-30.55,30.9-49.35,42.04-28.74,17.08-62.38,26.9-98.36,26.9-41.96,0-80.79-13.36-112.31-35.99h-.04c-47.81-34.36-78.87-89.99-78.87-152.8,0-59.28,27.66-112.21,70.97-146.79,1.08-.88,2.16-1.71,3.24-2.51,32.32-24.77,72.93-39.49,117.01-39.49,14.14,0,27.93,1.52,41.22,4.41,3.7.8,7.32,1.71,10.94,2.7,35.18,9.82,66.23,29.37,90,55.48l-54.32,56.84c-17.41-21.54-42.84-36.53-71.78-40.6-5.24-.76-10.6-1.14-16.07-1.14-27.78,0-53.25,9.97-72.89,26.52-24.23,20.32-39.61,50.68-39.61,84.58,0,61.33,50.36,111.06,112.5,111.06,34.1,0,64.65-14.99,85.26-38.66l62.45,47.45Z"/>
</svg>