<svg width="1760" height="648" viewBox="0 0 1760 648" fill="none" xmlns="http://www.w3.org/2000/svg">
<path d="M1720 0C1742.09 0 1760 17.9086 1760 40V608C1760 616.474 1757.36 624.33 1752.87 630.798L1747.72 635.941C1740.48 643.187 1728.73 643.187 1721.49 635.941L1699.83 614.288C1692.59 607.043 1680.84 607.042 1673.59 614.288L1651.94 635.941C1644.69 643.187 1632.95 643.187 1625.7 635.941L1604.05 614.288C1596.8 607.043 1585.05 607.042 1577.81 614.288L1556.15 635.941C1548.91 643.187 1537.16 643.187 1529.92 635.941L1508.26 614.288C1501.02 607.043 1489.27 607.043 1482.02 614.288L1448.31 648H40C17.9086 648 1.61086e-07 630.091 0 608V40C2.50317e-06 33.0789 1.75808 26.5685 4.85156 20.8906L12.2754 13.4678C19.5212 6.22202 31.2693 6.22202 38.5146 13.4678L60.168 35.1211C67.4132 42.3668 79.1619 42.3666 86.4072 35.1211L108.061 13.4678C115.306 6.22202 127.054 6.22202 134.3 13.4678L155.953 35.1211C163.198 42.3668 174.947 42.3667 182.192 35.1211L203.846 13.4678C211.091 6.22202 222.84 6.22202 230.085 13.4678L251.738 35.1211C258.984 42.3667 270.732 42.3668 277.978 35.1211L312.75 0.347656V0H1720Z" fill="url(#paint0_linear_251_459)"/>
<defs>
<linearGradient id="paint0_linear_251_459" x1="1597" y1="864.302" x2="162.995" y2="-216.302" gradientUnits="userSpaceOnUse">
<stop offset="0.019" stop-color="#FFC10A"/>
<stop offset="0.8596" stop-color="#EB2F8E"/>
</linearGradient>
</defs>
</svg>
